# xmcd
#
# Track frame offsets: 
#        150
#        12075
#        26315
#        37967
#        50914
#        70227
#        82767
#        96780
#        113100
#        134525
#        153242
#        167302
#        179782
#        192202
#        205352
#        218072
#        238684
#        248732
#        258460
#        272972
#        287962
#
# Disc length: 4064 seconds
#
# Revision: 0
# Processed by: cddbd v1.5.2PL0 Copyright (c) Steve Scherf et al.
# Submitted via: ExactAudioCopy v0.95a5
#
DISCID=2a0fde15
DTITLE=Various Artist - Kompilace-Zlato ceske country 2-CD3
DYEAR=1900
DGENRE=Country
TTITLE0=Sve banjo odhazuji v dal
TTITLE1=Posledni verejne poveseni v Zapadni Virginii
TTITLE2=Cekani na vlak
TTITLE3=Jaro
TTITLE4=Cervena reka
TTITLE5=Stary muz s kytarou
TTITLE6=Zatoka
TTITLE7=Slaboch Ben
TTITLE8=Poutnik a divka
TTITLE9=Poveste ho vejs
TTITLE10=Dabelsky sen
TTITLE11=Island
TTITLE12=Hraz
TTITLE13=Kdyby tady byla takova panenka
TTITLE14=Velika plan
TTITLE15=Tisic dnu mezi nami
TTITLE16=Stanky
TTITLE17=Wabash Cannonball
TTITLE18=Tipperary
TTITLE19=Zatracenej zivot
TTITLE20=Cricket Wars
EXTD=
EXTT0=
EXTT1=
EXTT2=
EXTT3=
EXTT4=
EXTT5=
EXTT6=
EXTT7=
EXTT8=
EXTT9=
EXTT10=
EXTT11=
EXTT12=
EXTT13=
EXTT14=
EXTT15=
EXTT16=
EXTT17=
EXTT18=
EXTT19=
EXTT20=
PLAYORDER=
